<svg xmlns="http://www.w3.org/2000/svg" width="512" height="512" viewBox="0 0 512 512">
<defs><linearGradient id="bg" x1="0" y1="0" x2="1" y2="1"><stop stop-color="#06101E"/><stop offset=".6" stop-color="#10243C"/><stop offset="1" stop-color="#050910"/></linearGradient>
<linearGradient id="hot" x1="110" y1="435" x2="306" y2="60"><stop stop-color="#174682"/><stop offset=".4" stop-color="#2676E0"/><stop offset=".72" stop-color="#9ECAFF"/><stop offset="1" stop-color="#F8FBFF"/></linearGradient>
<linearGradient id="gold" x1="232" y1="90" x2="432" y2="441"><stop stop-color="#F8FBFF"/><stop offset=".3" stop-color="#CBDEFA"/><stop offset=".72" stop-color="#5FA8FF"/><stop offset="1" stop-color="#21549A"/></linearGradient></defs>
<rect width="512" height="512" rx="114" fill="url(#bg)"/><rect x="9" y="9" width="494" height="494" rx="108" fill="none" stroke="#5D92D5" stroke-opacity=".55" stroke-width="9"/>
<path d="m62 425 150-330c27-59 74-60 104 0l140 323c12 26 0 46-29 46h-55c-18 0-28-10-35-26l-62-148-66 149c-7 16-18 25-35 25H95c-31 0-42-14-33-39Z" fill="url(#hot)"/>
<path d="m267 77 49 18 140 323c12 26 0 46-29 46h-55c-19 0-29-10-36-27L218 199l49-122Z" fill="url(#gold)"/>
<path d="M164 327h184l34 71H133l31-71Z" fill="#BCD9FF"/><path d="M169 349h179l21 42H146l23-42Z" fill="#397FD5"/>
<path d="m391 68 14 31 32 12-32 12-14 33-12-33-33-12 33-12 12-31Z" fill="#FFFFFF"/>
</svg>